# xmcd
#
# Track frame offsets: 
#        150
#        30975
#        72323
#        100443
#        142271
#        169242
#        214677
#        235142
#        302285
#
# Disc length: 4441 seconds
#
# Revision: 0
# Processed by: cddbd v1.5.2PL0 Copyright (c) Steve Scherf et al.
# Submitted via: ExactAudioCopy v0.99pb5
#
DISCID=79115709
DTITLE=Caravan  - The World Is Yours - An Anthology 1968-1976 - Disc 3
DYEAR=1900
DGENRE=
TTITLE0=Waterloo Lily
TTITLE1=Any Advance On Carpet ?
TTITLE2=C'thlu Thulu
TTITLE3=Memory Lain Hugh - Headloss
TTITLE4=The Dog, The Dog, He's At It Again
TTITLE5=L'auberge Du Sanglier - A Hunting We Shall Go
TTITLE6=A Mirror For The Day
TTITLE7=For Richard
TTITLE8=Virgin On The Ridiculous
EXTD=
EXTT0=
EXTT1=
EXTT2=
EXTT3=
EXTT4=
EXTT5=
EXTT6=
EXTT7=
EXTT8=
PLAYORDER=
